<?xml version="1.0" encoding="UTF-8" standalone="no"?>
<!-- Created with Inkscape (http://www.inkscape.org/) -->

<svg
   width="42.105255"
   height="50"
   viewBox="0 0 42.105257 50"
   version="1.1"
   id="svg1"
   xml:space="preserve"
   xmlns="http://www.w3.org/2000/svg"
   xmlns:svg="http://www.w3.org/2000/svg"
   xmlns:rdf="http://www.w3.org/1999/02/22-rdf-syntax-ns#"
   xmlns:cc="http://creativecommons.org/ns#"
   xmlns:dc="http://purl.org/dc/elements/1.1/"><defs
     id="defs1" /><g
     id="layer1"
     transform="translate(-281.7918,94.909698)"><g
       style="fill:#ffffff;fill-opacity:1"
       id="g15"
       transform="matrix(0.06578947,0,0,0.06578947,271.26548,-39.646542)"><path
         d="m 437,-80 q -24,0 -42,-17.63 -18,-17.62 -18,-42.37 V -340 H 220 q -24,0 -42,-18 -18,-18 -18,-42 v -303 q 0,-55 39.66,-96 39.65,-41 95.34,-41 h 505 v 440 q 0,24 -18,42 -18,18 -42,18 H 583 v 200 q 0,24.75 -18,42.37 Q 547,-80 523,-80 Z M 220,-554 h 520 v -226 h -56 v 171 h -60 v -171 h -71 v 85 h -60 v -85 H 295 q -32,0 -53.5,23 -21.5,23 -21.5,54 z m 0,154 h 520 v -94 H 220 Z m 0,0 v -94 z"
         id="path1-7"
         style="fill:#ffffff;fill-opacity:1" /></g></g><metadata
     id="metadata1"><rdf:RDF><cc:Work
         rdf:about=""><dc:creator><cc:Agent><dc:title>CrealStudio</dc:title></cc:Agent></dc:creator></cc:Work></rdf:RDF></metadata></svg>
