<?xml version="1.0" encoding="UTF-8" standalone="no"?>
<!-- Created with Inkscape (http://www.inkscape.org/) -->

<svg
   width="50.000008"
   height="50.000004"
   viewBox="0 0 50.00001 50.000003"
   version="1.1"
   id="svg1"
   xml:space="preserve"
   xmlns="http://www.w3.org/2000/svg"
   xmlns:svg="http://www.w3.org/2000/svg"
   xmlns:rdf="http://www.w3.org/1999/02/22-rdf-syntax-ns#"
   xmlns:cc="http://creativecommons.org/ns#"
   xmlns:dc="http://purl.org/dc/elements/1.1/"><defs
     id="defs1" /><g
     id="layer1"
     transform="translate(-111.13777,94.909708)"><g
       style="fill:#ffffff;fill-opacity:1;stroke-width:30.7872;stroke-dasharray:none"
       id="g8"
       transform="matrix(0.0625,0,0,0.0625,109.65511,-37.229527)"><path
         d="m 423.72273,-122.88282 q -82,0 -155,-31.5 -73,-31.5 -127.5,-86 -54.499998,-54.5 -85.999998,-127.5 -31.5,-73 -31.5,-155 0,-85 32,-158 32,-73 87.499998,-127 55.5,-54 130,-84.5 74.5,-30.5 159.5,-30.5 79,0 150,26.5 71,26.5 124.5,73.5 53.5,47 85,111.5 31.5,64.5 31.5,141.5 0,108 -63,170.5 -63,62.5 -167,62.5 h -75 q -18,0 -31,14 -13,14 -13,31 0,27 14.5,46 14.5,19 14.5,44 0,38 -21,58.5 -21,20.5 -59,20.5 z m 0,-400 z m -233,26 q 20,0 35,-15 15,-15 15,-35 0,-20 -15,-35 -15,-15 -35,-15 -20,0 -35,15 -15,15 -15,35 0,20 15,35 15,15 35,15 z m 126,-170 q 20,0 35,-15 15,-15 15,-35 0,-20 -15,-35 -15,-15 -35,-15 -20,0 -35,15 -15,15 -15,35 0,20 15,35 15,15 35,15 z m 214,0 q 20,0 35,-15 15,-15 15,-35 0,-20 -15,-35 -15,-15 -35,-15 -20,0 -35,15 -15,15 -15,35 0,20 15,35 15,15 35,15 z m 131,170 q 20,0 35,-15 15,-15 15,-35 0,-20 -15,-35 -15,-15 -35,-15 -20,0 -35,15 -15,15 -15,35 0,20 15,35 15,15 35,15 z m -238,314 q 11,0 15.5,-4.5 4.5,-4.5 4.5,-14.5 0,-14 -14.5,-26 -14.5,-12 -14.5,-53 0,-46 30,-81 30,-35 76,-35 h 73 q 76,0 123,-44.5 47,-44.5 47,-128.5 0,-132 -100,-212.5 -100,-80.5 -231,-80.5 -146,0 -247.5,98.5 -101.499998,98.5 -101.499998,241.5 0,141 99.499998,240.5 99.5,99.5 240.5,99.5 z"
         id="path1"
         style="fill:#ffffff;fill-opacity:1;stroke-width:30.7872;stroke-dasharray:none" /></g></g><metadata
     id="metadata1"><rdf:RDF><cc:Work
         rdf:about=""><dc:creator><cc:Agent><dc:title>CrealStudio</dc:title></cc:Agent></dc:creator></cc:Work></rdf:RDF></metadata></svg>
