<?xml version="1.0" encoding="UTF-8" standalone="no"?>
<!-- Created with Inkscape (http://www.inkscape.org/) -->

<svg
   width="50.000011"
   height="50.000008"
   viewBox="0 0 50.000014 50.000007"
   version="1.1"
   id="svg1"
   xml:space="preserve"
   xmlns="http://www.w3.org/2000/svg"
   xmlns:svg="http://www.w3.org/2000/svg"
   xmlns:rdf="http://www.w3.org/1999/02/22-rdf-syntax-ns#"
   xmlns:cc="http://creativecommons.org/ns#"
   xmlns:dc="http://purl.org/dc/elements/1.1/"><defs
     id="defs1" /><g
     id="layer1"
     transform="translate(-166.70666,94.9097)"><g
       id="g13"
       style="stroke-width:2;stroke-dasharray:none"
       transform="matrix(1.4650814,0,0,1.4650814,-89.159212,-106.53673)"><path
         id="path8"
         transform="matrix(0.85018984,0,0,0.85018984,34.725084,11.696475)"
         d="m 183.78234,33.124733 -2.47856,-9.855128 c -0.47532,-1.889951 -2.39275,-3.807381 -4.2827,-4.2827 l -9.85513,-2.478552 c -1.88995,-0.475319 -1.88995,-1.245965 0,-1.721285 l 9.85513,-2.478551 c 1.88995,-0.47532 3.80738,-2.3927506 4.2827,-4.2827012 l 2.47855,-9.8551271 c 0.47532,-1.8899506 1.24596,-1.8899508 1.72128,-5e-7 l 2.47856,9.8551281 c 0.47532,1.8899503 2.39275,3.8073807 4.2827,4.2826997 l 9.85513,2.478552 c 1.88995,0.475319 1.88995,1.245965 0,1.721285 l -9.85513,2.478552 c -1.88995,0.47532 -3.80738,2.392751 -4.2827,4.282701 l -2.47855,9.855127 c -0.47532,1.88995 -1.24596,1.889951 -1.72128,0 z"
         style="fill:none;fill-opacity:1;stroke:#ffffff;stroke-width:2.35242;stroke-linecap:round;stroke-linejoin:round;stroke-dasharray:none" /><path
         id="path9"
         transform="matrix(0,0.15469883,-0.15469883,0,204.68116,-13.497705)"
         d="m 180.44314,19.847547 -16.69925,-4.199836 16.69925,-4.199837 4.19983,-16.6992435 4.19984,16.6992435 16.69925,4.199836 -16.69925,4.199838 -4.19983,16.699243 z"
         style="fill:#ffffff;fill-opacity:1;stroke:none;stroke-width:12.9283;stroke-linecap:round;stroke-linejoin:round;stroke-dasharray:none" /><path
         id="path11"
         transform="matrix(0,0.15469883,-0.15469883,0,183.2896,6.1726989)"
         d="m 180.44314,19.847547 -16.69925,-4.199836 16.69925,-4.199837 4.19983,-16.6992435 4.19984,16.6992435 16.69925,4.199836 -16.69925,4.199838 -4.19983,16.699243 z"
         style="fill:#ffffff;fill-opacity:1;stroke:none;stroke-width:12.9283;stroke-linecap:round;stroke-linejoin:round;stroke-dasharray:none" /></g></g><metadata
     id="metadata1"><rdf:RDF><cc:Work
         rdf:about=""><dc:creator><cc:Agent><dc:title>CrealStudio</dc:title></cc:Agent></dc:creator></cc:Work></rdf:RDF></metadata></svg>
