<?xml version="1.0" encoding="UTF-8" standalone="no"?>
<!-- Created with Inkscape (http://www.inkscape.org/) -->

<svg
   width="50"
   height="50.000008"
   viewBox="0 0 50.000002 50.000007"
   version="1.1"
   id="svg1"
   xml:space="preserve"
   xmlns="http://www.w3.org/2000/svg"
   xmlns:svg="http://www.w3.org/2000/svg"
   xmlns:rdf="http://www.w3.org/1999/02/22-rdf-syntax-ns#"
   xmlns:cc="http://creativecommons.org/ns#"
   xmlns:dc="http://purl.org/dc/elements/1.1/"><defs
     id="defs1" /><g
     id="layer1"
     transform="translate(-222.27553,94.909708)"><g
       style="fill:#ffffff;fill-opacity:1"
       id="g14"
       transform="matrix(0.06944444,0,0,0.07812501,211.16443,-32.409696)"><path
         d="m 160,-410 v -60 h 300 v 60 z m 0,-165 v -60 h 470 v 60 z m 0,-165 v -60 h 470 v 60 z m 360,580 v -123 l 221,-220 q 9,-9 20,-13 11,-4 22,-4 12,0 23,4.5 11,4.5 20,13.5 l 37,37 q 9,9 13,20 4,11 4,22 0,11 -4.5,22.5 -4.5,11.5 -13.41,20.5 L 643,-160 Z m 300,-263 -37,-37 z m -240,203 h 38 l 121,-122 -18,-19 -19,-18 -122,121 z m 141,-141 -19,-18 37,37 z"
         id="path1-4"
         style="fill:#ffffff;fill-opacity:1" /></g></g><metadata
     id="metadata1"><rdf:RDF><cc:Work
         rdf:about=""><dc:creator><cc:Agent><dc:title>CrealStudio</dc:title></cc:Agent></dc:creator></cc:Work></rdf:RDF></metadata></svg>
